<?xml version="1.0" encoding="UTF-8" standalone="no"?>
<!-- Generated by graphviz version 2.38.0 (20140413.2041)
 -->

<!-- Title: %3 Pages: 1 -->

<svg
   xmlns:dc="http://purl.org/dc/elements/1.1/"
   xmlns:cc="http://creativecommons.org/ns#"
   xmlns:rdf="http://www.w3.org/1999/02/22-rdf-syntax-ns#"
   xmlns:svg="http://www.w3.org/2000/svg"
   xmlns="http://www.w3.org/2000/svg"
   xmlns:sodipodi="http://sodipodi.sourceforge.net/DTD/sodipodi-0.dtd"
   xmlns:inkscape="http://www.inkscape.org/namespaces/inkscape"
   width="527pt"
   height="980pt"
   viewBox="0.00 0.00 526.73 980.00"
   id="svg2"
   version="1.1"
   inkscape:version="0.91 r13725"
   sodipodi:docname="original2.svg">
  <metadata
     id="metadata594">
    <rdf:RDF>
      <cc:Work
         rdf:about="">
        <dc:format>image/svg+xml</dc:format>
        <dc:type
           rdf:resource="http://purl.org/dc/dcmitype/StillImage" />
      </cc:Work>
    </rdf:RDF>
  </metadata>
  <defs
     id="defs592" />
  <sodipodi:namedview
     pagecolor="#ffffff"
     bordercolor="#666666"
     borderopacity="1"
     objecttolerance="10"
     gridtolerance="10"
     guidetolerance="10"
     inkscape:pageopacity="0"
     inkscape:pageshadow="2"
     inkscape:window-width="810"
     inkscape:window-height="480"
     id="namedview590"
     showgrid="false"
     inkscape:zoom="0.19265306"
     inkscape:cx="329.375"
     inkscape:cy="612.5"
     inkscape:window-x="0"
     inkscape:window-y="27"
     inkscape:window-maximized="0"
     inkscape:current-layer="svg2" />
  <g
     class="node"
     id="node1"
     transform="translate(4,976)">
    <title
       id="title10">A(3, 0)</title>
    <polygon
       style="fill:none;stroke:#000000"
       id="polygon12"
       points="419.596,-432 475.596,-432 475.596,-468 475.596,-468 419.596,-468 " />
    <text
       style="font-size:14px;font-family:Times, serif;text-anchor:middle"
       id="text14"
       font-size="14.00"
       y="-446.29999"
       x="447.59601">A(3, 0)</text>
  </g>
  <g
     class="node"
     id="node26"
     transform="translate(4,976)">
    <title
       id="title17">center(3, 1)</title>
    <ellipse
       style="fill:none;stroke:#000000"
       id="ellipse19"
       ry="18"
       rx="51.990799"
       cy="-378"
       cx="439.59601" />
    <text
       style="font-size:14px;font-family:Times, serif;text-anchor:middle"
       id="text21"
       font-size="14.00"
       y="-374.29999"
       x="439.59601">center(3, 1)</text>
  </g>
  <g
     class="edge"
     id="edge44"
     transform="translate(4,976)">
    <title
       id="title24">A(3, 0)-&gt;center(3, 1)</title>
    <path
       style="fill:none;stroke:#000000"
       inkscape:connector-curvature="0"
       id="path26"
       d="m 445.619,-431.697 c -0.882,7.714 -1.941,16.985 -2.924,25.585" />
    <polygon
       style="fill:#000000;stroke:#000000"
       id="polygon28"
       points="439.209,-406.437 446.164,-405.642 446.164,-405.642 441.551,-396.104 " />
  </g>
  <g
     class="node"
     id="node2"
     transform="translate(4,976)">
    <title
       id="title31">A(2, 0)</title>
    <polygon
       style="fill:none;stroke:#000000"
       id="polygon33"
       points="424.596,-576 480.596,-576 480.596,-612 480.596,-612 424.596,-612 " />
    <text
       style="font-size:14px;font-family:Times, serif;text-anchor:middle"
       id="text35"
       font-size="14.00"
       y="-590.29999"
       x="452.59601">A(2, 0)</text>
  </g>
  <g
     class="node"
     id="node18"
     transform="translate(4,976)">
    <title
       id="title38">center(2, 1)</title>
    <ellipse
       style="fill:none;stroke:#000000"
       id="ellipse40"
       ry="18"
       rx="51.990799"
       cy="-522"
       cx="351.59601" />
    <text
       style="font-size:14px;font-family:Times, serif;text-anchor:middle"
       id="text42"
       font-size="14.00"
       y="-518.29999"
       x="351.59601">center(2, 1)</text>
  </g>
  <g
     class="edge"
     id="edge29"
     transform="translate(4,976)">
    <title
       id="title45">A(2, 0)-&gt;center(2, 1)</title>
    <path
       style="fill:none;stroke:#000000"
       inkscape:connector-curvature="0"
       id="path47"
       d="m 427.889,-575.876 c -13.767,9.541 -31.03,21.506 -45.651,31.639" />
    <polygon
       style="fill:#000000;stroke:#000000"
       id="polygon49"
       points="380.206,-547.087 384.194,-541.334 384.194,-541.334 373.981,-538.514 " />
  </g>
  <g
     class="node"
     id="node20"
     transform="translate(4,976)">
    <title
       id="title52">left(3, 0)</title>
    <ellipse
       style="fill:none;stroke:#000000"
       id="ellipse54"
       ry="18"
       rx="42.4939"
       cy="-522"
       cx="463.59601" />
    <text
       style="font-size:14px;font-family:Times, serif;text-anchor:middle"
       id="text56"
       font-size="14.00"
       y="-518.29999"
       x="463.59601">left(3, 0)</text>
  </g>
  <g
     class="edge"
     id="edge30"
     transform="translate(4,976)">
    <title
       id="title59">A(2, 0)-&gt;left(3, 0)</title>
    <path
       style="fill:none;stroke:#000000"
       inkscape:connector-curvature="0"
       id="path61"
       d="m 455.315,-575.697 c 1.213,7.714 2.669,16.985 4.021,25.585" />
    <polygon
       style="fill:#000000;stroke:#000000"
       id="polygon63"
       points="455.898,-549.44 462.814,-550.526 462.814,-550.526 460.908,-540.104 " />
  </g>
  <g
     class="edge"
     id="edge14"
     transform="translate(4,976)">
    <title
       id="title66">A(2, 0)-&gt;center(3, 1)</title>
    <path
       style="fill:none;stroke:#000000"
       inkscape:connector-curvature="0"
       id="path68"
       d="m 480.802,-576.859 c 12.85,9.026 26.743,21.554 33.794,36.859 6.696,14.532 3.138,20.311 0,36 -6.798,33.993 -11.899,42.434 -30,72 -6.273,10.246 -14.47,20.537 -22.147,29.288" />
    <polygon
       style="fill:#000000;stroke:#000000"
       id="polygon70"
       points="459.725,-404.918 464.917,-400.224 464.917,-400.224 455.614,-395.153 " />
  </g>
  <g
     class="node"
     id="node3"
     transform="translate(4,976)">
    <title
       id="title73">A(0, 0)</title>
    <polygon
       style="fill:none;stroke:#000000"
       id="polygon75"
       points="243.596,-864 299.596,-864 299.596,-900 299.596,-900 243.596,-900 " />
    <text
       style="font-size:14px;font-family:Times, serif;text-anchor:middle"
       id="text77"
       font-size="14.00"
       y="-878.29999"
       x="271.59601">A(0, 0)</text>
  </g>
  <g
     class="node"
     id="node28"
     transform="translate(4,976)">
    <title
       id="title80">left(1, 0)</title>
    <ellipse
       style="fill:none;stroke:#000000"
       id="ellipse82"
       ry="18"
       rx="42.4939"
       cy="-810"
       cx="343.59601" />
    <text
       style="font-size:14px;font-family:Times, serif;text-anchor:middle"
       id="text84"
       font-size="14.00"
       y="-806.29999"
       x="343.59601">left(1, 0)</text>
  </g>
  <g
     class="edge"
     id="edge34"
     transform="translate(4,976)">
    <title
       id="title87">A(0, 0)-&gt;left(1, 0)</title>
    <path
       style="fill:none;stroke:#000000"
       inkscape:connector-curvature="0"
       id="path89"
       d="m 289.394,-863.697 c 9.292,9.034 20.779,20.202 30.783,29.928" />
    <polygon
       style="fill:#000000;stroke:#000000"
       id="polygon91"
       points="317.868,-831.133 322.747,-836.152 322.747,-836.152 327.477,-826.671 " />
  </g>
  <g
     class="node"
     id="node31"
     transform="translate(4,976)">
    <title
       id="title94">center(1, 1)</title>
    <ellipse
       style="fill:none;stroke:#000000"
       id="ellipse96"
       ry="18"
       rx="51.990799"
       cy="-666"
       cx="271.59601" />
    <text
       style="font-size:14px;font-family:Times, serif;text-anchor:middle"
       id="text98"
       font-size="14.00"
       y="-662.29999"
       x="271.59601">center(1, 1)</text>
  </g>
  <g
     class="edge"
     id="edge27"
     transform="translate(4,976)">
    <title
       id="title101">A(0, 0)-&gt;center(1, 1)</title>
    <path
       style="fill:none;stroke:#000000"
       inkscape:connector-curvature="0"
       id="path103"
       d="m 271.596,-863.849 c 0,37.017 0,124.668 0,169.463" />
    <polygon
       style="fill:#000000;stroke:#000000"
       id="polygon105"
       points="268.096,-694.232 275.096,-694.232 275.096,-694.232 271.596,-684.232 " />
  </g>
  <g
     class="node"
     id="node32"
     transform="translate(4,976)">
    <title
       id="title108">top(0, 1)</title>
    <ellipse
       style="fill:none;stroke:#000000"
       id="ellipse110"
       ry="18"
       rx="41.692799"
       cy="-810"
       cx="196.59599" />
    <text
       style="font-size:14px;font-family:Times, serif;text-anchor:middle"
       id="text112"
       font-size="14.00"
       y="-806.29999"
       x="196.59599">top(0, 1)</text>
  </g>
  <g
     class="edge"
     id="edge28"
     transform="translate(4,976)">
    <title
       id="title115">A(0, 0)-&gt;top(0, 1)</title>
    <path
       style="fill:none;stroke:#000000"
       inkscape:connector-curvature="0"
       id="path117"
       d="m 253.057,-863.697 c -9.679,9.034 -21.644,20.202 -32.066,29.928" />
    <polygon
       style="fill:#000000;stroke:#000000"
       id="polygon119"
       points="218.309,-836.053 223.086,-830.936 223.086,-830.936 213.387,-826.671 " />
  </g>
  <g
     class="node"
     id="node4"
     transform="translate(4,976)">
    <title
       id="title122">A(0, 1)</title>
    <polygon
       style="fill:none;stroke:#000000"
       id="polygon124"
       points="165.596,-720 221.596,-720 221.596,-756 221.596,-756 165.596,-756 " />
    <text
       style="font-size:14px;font-family:Times, serif;text-anchor:middle"
       id="text126"
       font-size="14.00"
       y="-734.29999"
       x="193.59599">A(0, 1)</text>
  </g>
  <g
     class="node"
     id="node17"
     transform="translate(4,976)">
    <title
       id="title129">center(1, 2)</title>
    <ellipse
       style="fill:none;stroke:#000000"
       id="ellipse131"
       ry="18"
       rx="51.990799"
       cy="-522"
       cx="191.59599" />
    <text
       style="font-size:14px;font-family:Times, serif;text-anchor:middle"
       id="text133"
       font-size="14.00"
       y="-518.29999"
       x="191.59599">center(1, 2)</text>
  </g>
  <g
     class="edge"
     id="edge39"
     transform="translate(4,976)">
    <title
       id="title136">A(0, 1)-&gt;center(1, 2)</title>
    <path
       style="fill:none;stroke:#000000"
       inkscape:connector-curvature="0"
       id="path138"
       d="m 193.436,-719.849 c -0.346,37.017 -1.165,124.668 -1.584,169.463" />
    <polygon
       style="fill:#000000;stroke:#000000"
       id="polygon140"
       points="188.351,-550.265 195.351,-550.199 195.351,-550.199 191.757,-540.232 " />
  </g>
  <g
     class="node"
     id="node25"
     transform="translate(4,976)">
    <title
       id="title143">top(0, 2)</title>
    <ellipse
       style="fill:none;stroke:#000000"
       id="ellipse145"
       ry="18"
       rx="41.692799"
       cy="-666"
       cx="119.596" />
    <text
       style="font-size:14px;font-family:Times, serif;text-anchor:middle"
       id="text147"
       font-size="14.00"
       y="-662.29999"
       x="119.596">top(0, 2)</text>
  </g>
  <g
     class="edge"
     id="edge12"
     transform="translate(4,976)">
    <title
       id="title150">A(0, 1)-&gt;top(0, 2)</title>
    <path
       style="fill:none;stroke:#000000"
       inkscape:connector-curvature="0"
       id="path152"
       d="m 175.304,-719.697 c -9.55,9.034 -21.356,20.202 -31.638,29.928" />
    <polygon
       style="fill:#000000;stroke:#000000"
       id="polygon154"
       points="141.023,-692.086 145.833,-687.001 145.833,-687.001 136.163,-682.671 " />
  </g>
  <g
     class="edge"
     id="edge26"
     transform="translate(4,976)">
    <title
       id="title157">A(0, 1)-&gt;center(1, 1)</title>
    <path
       style="fill:none;stroke:#000000"
       inkscape:connector-curvature="0"
       id="path159"
       d="m 212.877,-719.697 c 10.02,8.992 22.395,20.099 33.198,29.793" />
    <polygon
       style="fill:#000000;stroke:#000000"
       id="polygon161"
       points="243.827,-687.219 248.502,-692.429 248.502,-692.429 253.607,-683.145 " />
  </g>
  <g
     class="node"
     id="node5"
     transform="translate(4,976)">
    <title
       id="title164">A(0, 3)</title>
    <polygon
       style="fill:none;stroke:#000000"
       id="polygon166"
       points="20.5963,-432 76.5963,-432 76.5963,-468 76.5963,-468 20.5963,-468 " />
    <text
       style="font-size:14px;font-family:Times, serif;text-anchor:middle"
       id="text168"
       font-size="14.00"
       y="-446.29999"
       x="48.596298">A(0, 3)</text>
  </g>
  <g
     class="node"
     id="node23"
     transform="translate(4,976)">
    <title
       id="title171">center(1, 3)</title>
    <ellipse
       style="fill:none;stroke:#000000"
       id="ellipse173"
       ry="18"
       rx="51.990799"
       cy="-378"
       cx="111.596" />
    <text
       style="font-size:14px;font-family:Times, serif;text-anchor:middle"
       id="text175"
       font-size="14.00"
       y="-374.29999"
       x="111.596">center(1, 3)</text>
  </g>
  <g
     class="edge"
     id="edge9"
     transform="translate(4,976)">
    <title
       id="title178">A(0, 3)-&gt;center(1, 3)</title>
    <path
       style="fill:none;stroke:#000000"
       inkscape:connector-curvature="0"
       id="path180"
       d="m 64.1693,-431.697 c 7.7431,8.604 17.2284,19.143 25.676,28.529" />
    <polygon
       style="fill:#000000;stroke:#000000"
       id="polygon182"
       points="87.345,-400.714 92.5481,-405.397 92.5481,-405.397 96.6362,-395.622 " />
  </g>
  <g
     class="node"
     id="node6"
     transform="translate(4,976)">
    <title
       id="title185">A(0, 2)</title>
    <polygon
       style="fill:none;stroke:#000000"
       id="polygon187"
       points="86.5963,-576 142.596,-576 142.596,-612 142.596,-612 86.5963,-612 " />
    <text
       style="font-size:14px;font-family:Times, serif;text-anchor:middle"
       id="text189"
       font-size="14.00"
       y="-590.29999"
       x="114.596">A(0, 2)</text>
  </g>
  <g
     class="edge"
     id="edge40"
     transform="translate(4,976)">
    <title
       id="title192">A(0, 2)-&gt;center(1, 2)</title>
    <path
       style="fill:none;stroke:#000000"
       inkscape:connector-curvature="0"
       id="path194"
       d="m 133.63,-575.697 c 9.891,8.992 22.108,20.099 32.772,29.793" />
    <polygon
       style="fill:#000000;stroke:#000000"
       id="polygon196"
       points="164.084,-543.282 168.792,-548.461 168.792,-548.461 173.837,-539.145 " />
  </g>
  <g
     class="node"
     id="node19"
     transform="translate(4,976)">
    <title
       id="title199">top(0, 3)</title>
    <ellipse
       style="fill:none;stroke:#000000"
       id="ellipse201"
       ry="18"
       rx="41.692799"
       cy="-522"
       cx="41.596298" />
    <text
       style="font-size:14px;font-family:Times, serif;text-anchor:middle"
       id="text203"
       font-size="14.00"
       y="-518.29999"
       x="41.596298">top(0, 3)</text>
  </g>
  <g
     class="edge"
     id="edge4"
     transform="translate(4,976)">
    <title
       id="title206">A(0, 2)-&gt;top(0, 3)</title>
    <path
       style="fill:none;stroke:#000000"
       inkscape:connector-curvature="0"
       id="path208"
       d="m 96.5514,-575.697 c -9.4207,9.034 -21.0672,20.202 -31.2104,29.928" />
    <polygon
       style="fill:#000000;stroke:#000000"
       id="polygon210"
       points="62.7346,-548.119 67.5794,-543.066 67.5794,-543.066 57.9392,-538.671 " />
  </g>
  <g
     class="edge"
     id="edge16"
     transform="translate(4,976)">
    <title
       id="title213">A(0, 2)-&gt;center(1, 3)</title>
    <path
       style="fill:none;stroke:#000000"
       inkscape:connector-curvature="0"
       id="path215"
       d="m 114.356,-575.849 c -0.519,37.017 -1.748,124.668 -2.376,169.463" />
    <polygon
       style="fill:#000000;stroke:#000000"
       id="polygon217"
       points="108.478,-406.281 115.478,-406.182 115.478,-406.182 111.838,-396.232 " />
  </g>
  <g
     class="node"
     id="node7"
     transform="translate(4,976)">
    <title
       id="title220">A(2, 3)</title>
    <polygon
       style="fill:none;stroke:#000000"
       id="polygon222"
       points="175.596,-144 231.596,-144 231.596,-180 231.596,-180 175.596,-180 " />
    <text
       style="font-size:14px;font-family:Times, serif;text-anchor:middle"
       id="text224"
       font-size="14.00"
       y="-158.3"
       x="203.59599">A(2, 3)</text>
  </g>
  <g
     class="node"
     id="node29"
     transform="translate(4,976)">
    <title
       id="title227">center(3, 3)</title>
    <ellipse
       style="fill:none;stroke:#000000"
       id="ellipse229"
       ry="18"
       rx="51.990799"
       cy="-90"
       cx="271.59601" />
    <text
       style="font-size:14px;font-family:Times, serif;text-anchor:middle"
       id="text231"
       font-size="14.00"
       y="-86.300003"
       x="271.59601">center(3, 3)</text>
  </g>
  <g
     class="edge"
     id="edge23"
     transform="translate(4,976)">
    <title
       id="title234">A(2, 3)-&gt;center(3, 3)</title>
    <path
       style="fill:none;stroke:#000000"
       inkscape:connector-curvature="0"
       id="path236"
       d="m 220.405,-143.697 c 8.441,8.69 18.801,19.354 27.987,28.81" />
    <polygon
       style="fill:#000000;stroke:#000000"
       id="polygon238"
       points="245.971,-112.356 250.992,-117.234 250.992,-117.234 255.449,-107.622 " />
  </g>
  <g
     class="node"
     id="node8"
     transform="translate(4,976)">
    <title
       id="title241">A(2, 1)</title>
    <polygon
       style="fill:none;stroke:#000000"
       id="polygon243"
       points="323.596,-432 379.596,-432 379.596,-468 379.596,-468 323.596,-468 " />
    <text
       style="font-size:14px;font-family:Times, serif;text-anchor:middle"
       id="text245"
       font-size="14.00"
       y="-446.29999"
       x="351.59601">A(2, 1)</text>
  </g>
  <g
     class="node"
     id="node22"
     transform="translate(4,976)">
    <title
       id="title248">center(3, 2)</title>
    <ellipse
       style="fill:none;stroke:#000000"
       id="ellipse250"
       ry="18"
       rx="51.990799"
       cy="-234"
       cx="351.59601" />
    <text
       style="font-size:14px;font-family:Times, serif;text-anchor:middle"
       id="text252"
       font-size="14.00"
       y="-230.3"
       x="351.59601">center(3, 2)</text>
  </g>
  <g
     class="edge"
     id="edge10"
     transform="translate(4,976)">
    <title
       id="title255">A(2, 1)-&gt;center(3, 2)</title>
    <path
       style="fill:none;stroke:#000000"
       inkscape:connector-curvature="0"
       id="path257"
       d="m 351.596,-431.849 c 0,37.017 0,124.668 0,169.463" />
    <polygon
       style="fill:#000000;stroke:#000000"
       id="polygon259"
       points="348.096,-262.232 355.096,-262.232 355.096,-262.232 351.596,-252.232 " />
  </g>
  <g
     class="node"
     id="node24"
     transform="translate(4,976)">
    <title
       id="title262">center(2, 2)</title>
    <ellipse
       style="fill:none;stroke:#000000"
       id="ellipse264"
       ry="18"
       rx="51.990799"
       cy="-378"
       cx="271.59601" />
    <text
       style="font-size:14px;font-family:Times, serif;text-anchor:middle"
       id="text266"
       font-size="14.00"
       y="-374.29999"
       x="271.59601">center(2, 2)</text>
  </g>
  <g
     class="edge"
     id="edge17"
     transform="translate(4,976)">
    <title
       id="title269">A(2, 1)-&gt;center(2, 2)</title>
    <path
       style="fill:none;stroke:#000000"
       inkscape:connector-curvature="0"
       id="path271"
       d="m 331.821,-431.697 c -10.351,9.057 -23.153,20.26 -34.29,30.004" />
    <polygon
       style="fill:#000000;stroke:#000000"
       id="polygon273"
       points="294.997,-404.126 299.607,-398.858 299.607,-398.858 289.776,-394.907 " />
  </g>
  <g
     class="edge"
     id="edge50"
     transform="translate(4,976)">
    <title
       id="title276">A(2, 1)-&gt;center(3, 1)</title>
    <path
       style="fill:none;stroke:#000000"
       inkscape:connector-curvature="0"
       id="path278"
       d="m 373.349,-431.697 c 11.691,9.3 26.224,20.861 38.698,30.783" />
    <polygon
       style="fill:#000000;stroke:#000000"
       id="polygon280"
       points="409.89,-398.157 414.248,-403.636 414.248,-403.636 419.895,-394.671 " />
  </g>
  <g
     class="node"
     id="node9"
     transform="translate(4,976)">
    <title
       id="title283">A(1, 3)</title>
    <polygon
       style="fill:none;stroke:#000000"
       id="polygon285"
       points="95.5963,-288 151.596,-288 151.596,-324 151.596,-324 95.5963,-324 " />
    <text
       style="font-size:14px;font-family:Times, serif;text-anchor:middle"
       id="text287"
       font-size="14.00"
       y="-302.29999"
       x="123.596">A(1, 3)</text>
  </g>
  <g
     class="node"
     id="node27"
     transform="translate(4,976)">
    <title
       id="title290">center(2, 3)</title>
    <ellipse
       style="fill:none;stroke:#000000"
       id="ellipse292"
       ry="18"
       rx="51.990799"
       cy="-234"
       cx="191.59599" />
    <text
       style="font-size:14px;font-family:Times, serif;text-anchor:middle"
       id="text294"
       font-size="14.00"
       y="-230.3"
       x="191.59599">center(2, 3)</text>
  </g>
  <g
     class="edge"
     id="edge15"
     transform="translate(4,976)">
    <title
       id="title297">A(1, 3)-&gt;center(2, 3)</title>
    <path
       style="fill:none;stroke:#000000"
       inkscape:connector-curvature="0"
       id="path299"
       d="m 140.405,-287.697 c 8.441,8.69 18.801,19.354 27.987,28.81" />
    <polygon
       style="fill:#000000;stroke:#000000"
       id="polygon301"
       points="165.971,-256.356 170.992,-261.234 170.992,-261.234 175.449,-251.622 " />
  </g>
  <g
     class="node"
     id="node10"
     transform="translate(4,976)">
    <title
       id="title304">A(1, 1)</title>
    <polygon
       style="fill:none;stroke:#000000"
       id="polygon306"
       points="243.596,-576 299.596,-576 299.596,-612 299.596,-612 243.596,-612 " />
    <text
       style="font-size:14px;font-family:Times, serif;text-anchor:middle"
       id="text308"
       font-size="14.00"
       y="-590.29999"
       x="271.59601">A(1, 1)</text>
  </g>
  <g
     class="edge"
     id="edge6"
     transform="translate(4,976)">
    <title
       id="title311">A(1, 1)-&gt;center(1, 2)</title>
    <path
       style="fill:none;stroke:#000000"
       inkscape:connector-curvature="0"
       id="path313"
       d="m 251.821,-575.697 c -10.351,9.057 -23.153,20.26 -34.29,30.004" />
    <polygon
       style="fill:#000000;stroke:#000000"
       id="polygon315"
       points="214.997,-548.126 219.607,-542.858 219.607,-542.858 209.776,-538.907 " />
  </g>
  <g
     class="edge"
     id="edge20"
     transform="translate(4,976)">
    <title
       id="title318">A(1, 1)-&gt;center(2, 1)</title>
    <path
       style="fill:none;stroke:#000000"
       inkscape:connector-curvature="0"
       id="path320"
       d="m 291.372,-575.697 c 10.35,9.057 23.153,20.26 34.289,30.004" />
    <polygon
       style="fill:#000000;stroke:#000000"
       id="polygon322"
       points="323.586,-542.858 328.195,-548.126 328.195,-548.126 333.416,-538.907 " />
  </g>
  <g
     class="edge"
     id="edge46"
     transform="translate(4,976)">
    <title
       id="title325">A(1, 1)-&gt;center(2, 2)</title>
    <path
       style="fill:none;stroke:#000000"
       inkscape:connector-curvature="0"
       id="path327"
       d="m 271.596,-575.849 c 0,37.017 0,124.668 0,169.463" />
    <polygon
       style="fill:#000000;stroke:#000000"
       id="polygon329"
       points="268.096,-406.232 275.096,-406.232 275.096,-406.232 271.596,-396.232 " />
  </g>
  <g
     class="node"
     id="node11"
     transform="translate(4,976)">
    <title
       id="title332">A(1, 2)</title>
    <polygon
       style="fill:none;stroke:#000000"
       id="polygon334"
       points="163.596,-432 219.596,-432 219.596,-468 219.596,-468 163.596,-468 " />
    <text
       style="font-size:14px;font-family:Times, serif;text-anchor:middle"
       id="text336"
       font-size="14.00"
       y="-446.29999"
       x="191.59599">A(1, 2)</text>
  </g>
  <g
     class="edge"
     id="edge22"
     transform="translate(4,976)">
    <title
       id="title339">A(1, 2)-&gt;center(1, 3)</title>
    <path
       style="fill:none;stroke:#000000"
       inkscape:connector-curvature="0"
       id="path341"
       d="m 171.821,-431.697 c -10.351,9.057 -23.153,20.26 -34.29,30.004" />
    <polygon
       style="fill:#000000;stroke:#000000"
       id="polygon343"
       points="134.997,-404.126 139.607,-398.858 139.607,-398.858 129.776,-394.907 " />
  </g>
  <g
     class="edge"
     id="edge13"
     transform="translate(4,976)">
    <title
       id="title346">A(1, 2)-&gt;center(2, 2)</title>
    <path
       style="fill:none;stroke:#000000"
       inkscape:connector-curvature="0"
       id="path348"
       d="m 211.372,-431.697 c 10.35,9.057 23.153,20.26 34.289,30.004" />
    <polygon
       style="fill:#000000;stroke:#000000"
       id="polygon350"
       points="243.586,-398.858 248.195,-404.126 248.195,-404.126 253.416,-394.907 " />
  </g>
  <g
     class="edge"
     id="edge33"
     transform="translate(4,976)">
    <title
       id="title353">A(1, 2)-&gt;center(2, 3)</title>
    <path
       style="fill:none;stroke:#000000"
       inkscape:connector-curvature="0"
       id="path355"
       d="m 191.596,-431.849 c 0,37.017 0,124.668 0,169.463" />
    <polygon
       style="fill:#000000;stroke:#000000"
       id="polygon357"
       points="188.096,-262.232 195.096,-262.232 195.096,-262.232 191.596,-252.232 " />
  </g>
  <g
     class="node"
     id="node12"
     transform="translate(4,976)">
    <title
       id="title360">A(1, 0)</title>
    <polygon
       style="fill:none;stroke:#000000"
       id="polygon362"
       points="320.596,-720 376.596,-720 376.596,-756 376.596,-756 320.596,-756 " />
    <text
       style="font-size:14px;font-family:Times, serif;text-anchor:middle"
       id="text364"
       font-size="14.00"
       y="-734.29999"
       x="348.59601">A(1, 0)</text>
  </g>
  <g
     class="edge"
     id="edge2"
     transform="translate(4,976)">
    <title
       id="title367">A(1, 0)-&gt;center(2, 1)</title>
    <path
       style="fill:none;stroke:#000000"
       inkscape:connector-curvature="0"
       id="path369"
       d="m 348.837,-719.849 c 0.519,37.017 1.747,124.668 2.375,169.463" />
    <polygon
       style="fill:#000000;stroke:#000000"
       id="polygon371"
       points="347.715,-550.182 354.714,-550.281 354.714,-550.281 351.355,-540.232 " />
  </g>
  <g
     class="node"
     id="node30"
     transform="translate(4,976)">
    <title
       id="title374">left(2, 0)</title>
    <ellipse
       style="fill:none;stroke:#000000"
       id="ellipse376"
       ry="18"
       rx="42.4939"
       cy="-666"
       cx="431.59601" />
    <text
       style="font-size:14px;font-family:Times, serif;text-anchor:middle"
       id="text378"
       font-size="14.00"
       y="-662.29999"
       x="431.59601">left(2, 0)</text>
  </g>
  <g
     class="edge"
     id="edge24"
     transform="translate(4,976)">
    <title
       id="title381">A(1, 0)-&gt;left(2, 0)</title>
    <path
       style="fill:none;stroke:#000000"
       inkscape:connector-curvature="0"
       id="path383"
       d="m 369.113,-719.697 c 10.999,9.277 24.667,20.804 36.413,30.71" />
    <polygon
       style="fill:#000000;stroke:#000000"
       id="polygon385"
       points="403.392,-686.208 407.905,-691.559 407.905,-691.559 413.293,-682.436 " />
  </g>
  <g
     class="edge"
     id="edge42"
     transform="translate(4,976)">
    <title
       id="title388">A(1, 0)-&gt;center(1, 1)</title>
    <path
       style="fill:none;stroke:#000000"
       inkscape:connector-curvature="0"
       id="path390"
       d="m 329.563,-719.697 c -9.891,8.992 -22.108,20.099 -32.773,29.793" />
    <polygon
       style="fill:#000000;stroke:#000000"
       id="polygon392"
       points="294.4,-692.461 299.109,-687.282 299.109,-687.282 289.355,-683.145 " />
  </g>
  <g
     class="node"
     id="node13"
     transform="translate(4,976)">
    <title
       id="title395">A(3, 1)</title>
    <polygon
       style="fill:none;stroke:#000000"
       id="polygon397"
       points="399.596,-288 455.596,-288 455.596,-324 455.596,-324 399.596,-324 " />
    <text
       style="font-size:14px;font-family:Times, serif;text-anchor:middle"
       id="text399"
       font-size="14.00"
       y="-302.29999"
       x="427.59601">A(3, 1)</text>
  </g>
  <g
     class="edge"
     id="edge35"
     transform="translate(4,976)">
    <title
       id="title402">A(3, 1)-&gt;center(3, 2)</title>
    <path
       style="fill:none;stroke:#000000"
       inkscape:connector-curvature="0"
       id="path404"
       d="m 408.81,-287.697 c -9.668,8.905 -21.587,19.883 -32.04,29.51" />
    <polygon
       style="fill:#000000;stroke:#000000"
       id="polygon406"
       points="374.109,-260.494 378.851,-255.345 378.851,-255.345 369.125,-251.145 " />
  </g>
  <g
     class="node"
     id="node14"
     transform="translate(4,976)">
    <title
       id="title409">A(3, 3)</title>
    <polygon
       style="fill:none;stroke:#000000"
       id="polygon411"
       points="243.596,0 299.596,0 299.596,-36 299.596,-36 243.596,-36 " />
    <text
       style="font-size:14px;font-family:Times, serif;text-anchor:middle"
       id="text413"
       font-size="14.00"
       y="-14.3"
       x="271.59601">A(3, 3)</text>
  </g>
  <g
     class="node"
     id="node15"
     transform="translate(4,976)">
    <title
       id="title416">A(3, 2)</title>
    <polygon
       style="fill:none;stroke:#000000"
       id="polygon418"
       points="311.596,-144 367.596,-144 367.596,-180 367.596,-180 311.596,-180 " />
    <text
       style="font-size:14px;font-family:Times, serif;text-anchor:middle"
       id="text420"
       font-size="14.00"
       y="-158.3"
       x="339.59601">A(3, 2)</text>
  </g>
  <g
     class="edge"
     id="edge49"
     transform="translate(4,976)">
    <title
       id="title423">A(3, 2)-&gt;center(3, 3)</title>
    <path
       style="fill:none;stroke:#000000"
       inkscape:connector-curvature="0"
       id="path425"
       d="m 322.787,-143.697 c -8.441,8.69 -18.8,19.354 -27.987,28.81" />
    <polygon
       style="fill:#000000;stroke:#000000"
       id="polygon427"
       points="292.201,-117.234 297.222,-112.356 297.222,-112.356 287.744,-107.622 " />
  </g>
  <g
     class="node"
     id="node16"
     transform="translate(4,976)">
    <title
       id="title430">A(2, 2)</title>
    <polygon
       style="fill:none;stroke:#000000"
       id="polygon432"
       points="243.596,-288 299.596,-288 299.596,-324 299.596,-324 243.596,-324 " />
    <text
       style="font-size:14px;font-family:Times, serif;text-anchor:middle"
       id="text434"
       font-size="14.00"
       y="-302.29999"
       x="271.59601">A(2, 2)</text>
  </g>
  <g
     class="edge"
     id="edge8"
     transform="translate(4,976)">
    <title
       id="title437">A(2, 2)-&gt;center(3, 2)</title>
    <path
       style="fill:none;stroke:#000000"
       inkscape:connector-curvature="0"
       id="path439"
       d="m 291.372,-287.697 c 10.35,9.057 23.153,20.26 34.289,30.004" />
    <polygon
       style="fill:#000000;stroke:#000000"
       id="polygon441"
       points="323.586,-254.858 328.195,-260.126 328.195,-260.126 333.416,-250.907 " />
  </g>
  <g
     class="edge"
     id="edge47"
     transform="translate(4,976)">
    <title
       id="title444">A(2, 2)-&gt;center(2, 3)</title>
    <path
       style="fill:none;stroke:#000000"
       inkscape:connector-curvature="0"
       id="path446"
       d="m 251.821,-287.697 c -10.351,9.057 -23.153,20.26 -34.29,30.004" />
    <polygon
       style="fill:#000000;stroke:#000000"
       id="polygon448"
       points="214.997,-260.126 219.607,-254.858 219.607,-254.858 209.776,-250.907 " />
  </g>
  <g
     class="edge"
     id="edge25"
     transform="translate(4,976)">
    <title
       id="title451">A(2, 2)-&gt;center(3, 3)</title>
    <path
       style="fill:none;stroke:#000000"
       inkscape:connector-curvature="0"
       id="path453"
       d="m 271.596,-287.849 c 0,37.017 0,124.668 0,169.463" />
    <polygon
       style="fill:#000000;stroke:#000000"
       id="polygon455"
       points="268.096,-118.232 275.096,-118.232 275.096,-118.232 271.596,-108.232 " />
  </g>
  <g
     class="edge"
     id="edge1"
     transform="translate(4,976)">
    <title
       id="title458">center(1, 2)-&gt;A(1, 2)</title>
    <path
       style="fill:none;stroke:#000000"
       inkscape:connector-curvature="0"
       id="path460"
       d="m 191.596,-503.697 c 0,7.714 0,16.985 0,25.585" />
    <polygon
       style="fill:#000000;stroke:#000000"
       id="polygon462"
       points="188.096,-478.104 195.096,-478.104 195.096,-478.104 191.596,-468.104 " />
  </g>
  <g
     class="edge"
     id="edge3"
     transform="translate(4,976)">
    <title
       id="title465">center(2, 1)-&gt;A(2, 1)</title>
    <path
       style="fill:none;stroke:#000000"
       inkscape:connector-curvature="0"
       id="path467"
       d="m 351.596,-503.697 c 0,7.714 0,16.985 0,25.585" />
    <polygon
       style="fill:#000000;stroke:#000000"
       id="polygon469"
       points="348.096,-478.104 355.096,-478.104 355.096,-478.104 351.596,-468.104 " />
  </g>
  <g
     class="edge"
     id="edge38"
     transform="translate(4,976)">
    <title
       id="title472">top(0, 3)-&gt;A(0, 3)</title>
    <path
       style="fill:none;stroke:#000000"
       inkscape:connector-curvature="0"
       id="path474"
       d="m 43.3266,-503.697 c 0.7714,7.714 1.6985,16.985 2.5585,25.585" />
    <polygon
       style="fill:#000000;stroke:#000000"
       id="polygon476"
       points="42.4081,-477.706 49.3734,-478.403 49.3734,-478.403 46.8859,-468.104 " />
  </g>
  <g
     class="edge"
     id="edge5"
     transform="translate(4,976)">
    <title
       id="title479">left(3, 0)-&gt;A(3, 0)</title>
    <path
       style="fill:none;stroke:#000000"
       inkscape:connector-curvature="0"
       id="path481"
       d="m 459.723,-504.055 c -1.781,7.794 -3.939,17.233 -5.937,25.976" />
    <polygon
       style="fill:#000000;stroke:#000000"
       id="polygon483"
       points="450.361,-478.804 457.185,-477.244 457.185,-477.244 451.545,-468.275 " />
  </g>
  <g
     class="node"
     id="node21"
     transform="translate(4,976)">
    <title
       id="title486">left(0, 0)</title>
    <ellipse
       style="fill:none;stroke:#000000"
       id="ellipse488"
       ry="18"
       rx="42.4939"
       cy="-954"
       cx="202.59599" />
    <text
       style="font-size:14px;font-family:Times, serif;text-anchor:middle"
       id="text490"
       font-size="14.00"
       y="-950.29999"
       x="202.59599">left(0, 0)</text>
  </g>
  <g
     class="edge"
     id="edge7"
     transform="translate(4,976)">
    <title
       id="title493">left(0, 0)-&gt;A(0, 0)</title>
    <path
       style="fill:none;stroke:#000000"
       inkscape:connector-curvature="0"
       id="path495"
       d="m 218.253,-937.116 c 8.619,8.743 19.5,19.782 29.184,29.606" />
    <polygon
       style="fill:#000000;stroke:#000000"
       id="polygon497"
       points="245.039,-904.957 250.024,-909.871 250.024,-909.871 254.551,-900.292 " />
  </g>
  <g
     class="edge"
     id="edge19"
     transform="translate(4,976)">
    <title
       id="title500">center(3, 2)-&gt;A(3, 2)</title>
    <path
       style="fill:none;stroke:#000000"
       inkscape:connector-curvature="0"
       id="path502"
       d="m 348.63,-215.697 c -1.322,7.714 -2.912,16.985 -4.386,25.585" />
    <polygon
       style="fill:#000000;stroke:#000000"
       id="polygon504"
       points="340.769,-190.552 347.668,-189.369 347.668,-189.369 342.528,-180.104 " />
  </g>
  <g
     class="edge"
     id="edge41"
     transform="translate(4,976)">
    <title
       id="title507">center(1, 3)-&gt;A(1, 3)</title>
    <path
       style="fill:none;stroke:#000000"
       inkscape:connector-curvature="0"
       id="path509"
       d="m 114.563,-359.697 c 1.322,7.714 2.911,16.985 4.385,25.585" />
    <polygon
       style="fill:#000000;stroke:#000000"
       id="polygon511"
       points="115.525,-333.369 122.424,-334.552 122.424,-334.552 120.664,-324.104 " />
  </g>
  <g
     class="edge"
     id="edge11"
     transform="translate(4,976)">
    <title
       id="title514">center(2, 2)-&gt;A(2, 2)</title>
    <path
       style="fill:none;stroke:#000000"
       inkscape:connector-curvature="0"
       id="path516"
       d="m 271.596,-359.697 c 0,7.714 0,16.985 0,25.585" />
    <polygon
       style="fill:#000000;stroke:#000000"
       id="polygon518"
       points="268.096,-334.104 275.096,-334.104 275.096,-334.104 271.596,-324.104 " />
  </g>
  <g
     class="edge"
     id="edge21"
     transform="translate(4,976)">
    <title
       id="title521">top(0, 2)-&gt;A(0, 2)</title>
    <path
       style="fill:none;stroke:#000000"
       inkscape:connector-curvature="0"
       id="path523"
       d="m 118.36,-647.697 c -0.551,7.714 -1.213,16.985 -1.827,25.585" />
    <polygon
       style="fill:#000000;stroke:#000000"
       id="polygon525"
       points="113.04,-622.328 120.022,-621.83 120.022,-621.83 115.818,-612.104 " />
  </g>
  <g
     class="edge"
     id="edge32"
     transform="translate(4,976)">
    <title
       id="title528">center(3, 1)-&gt;A(3, 1)</title>
    <path
       style="fill:none;stroke:#000000"
       inkscape:connector-curvature="0"
       id="path530"
       d="m 436.63,-359.697 c -1.322,7.714 -2.912,16.985 -4.386,25.585" />
    <polygon
       style="fill:#000000;stroke:#000000"
       id="polygon532"
       points="428.769,-334.552 435.668,-333.369 435.668,-333.369 430.528,-324.104 " />
  </g>
  <g
     class="edge"
     id="edge43"
     transform="translate(4,976)">
    <title
       id="title535">center(2, 3)-&gt;A(2, 3)</title>
    <path
       style="fill:none;stroke:#000000"
       inkscape:connector-curvature="0"
       id="path537"
       d="m 194.563,-215.697 c 1.322,7.714 2.911,16.985 4.385,25.585" />
    <polygon
       style="fill:#000000;stroke:#000000"
       id="polygon539"
       points="195.525,-189.369 202.424,-190.552 202.424,-190.552 200.664,-180.104 " />
  </g>
  <g
     class="edge"
     id="edge18"
     transform="translate(4,976)">
    <title
       id="title542">left(1, 0)-&gt;A(1, 0)</title>
    <path
       style="fill:none;stroke:#000000"
       inkscape:connector-curvature="0"
       id="path544"
       d="m 344.832,-791.697 c 0.551,7.714 1.213,16.985 1.828,25.585" />
    <polygon
       style="fill:#000000;stroke:#000000"
       id="polygon546"
       points="343.171,-765.83 350.153,-766.328 350.153,-766.328 347.375,-756.104 " />
  </g>
  <g
     class="edge"
     id="edge45"
     transform="translate(4,976)">
    <title
       id="title549">center(3, 3)-&gt;A(3, 3)</title>
    <path
       style="fill:none;stroke:#000000"
       inkscape:connector-curvature="0"
       id="path551"
       d="m 271.596,-71.6966 c 0,7.7139 0,16.9841 0,25.5842" />
    <polygon
       style="fill:#000000;stroke:#000000"
       id="polygon553"
       points="268.096,-46.1044 275.096,-46.1043 275.096,-46.1043 271.596,-36.1043 " />
  </g>
  <g
     class="edge"
     id="edge48"
     transform="translate(4,976)">
    <title
       id="title556">left(2, 0)-&gt;A(2, 0)</title>
    <path
       style="fill:none;stroke:#000000"
       inkscape:connector-curvature="0"
       id="path558"
       d="m 436.68,-648.055 c 2.338,7.794 5.17,17.233 7.793,25.976" />
    <polygon
       style="fill:#000000;stroke:#000000"
       id="polygon560"
       points="441.188,-620.848 447.893,-622.859 447.893,-622.859 447.414,-612.275 " />
  </g>
  <g
     class="edge"
     id="edge31"
     transform="translate(4,976)">
    <title
       id="title563">center(1, 1)-&gt;A(1, 1)</title>
    <path
       style="fill:none;stroke:#000000"
       inkscape:connector-curvature="0"
       id="path565"
       d="m 271.596,-647.697 c 0,7.714 0,16.985 0,25.585" />
    <polygon
       style="fill:#000000;stroke:#000000"
       id="polygon567"
       points="268.096,-622.104 275.096,-622.104 275.096,-622.104 271.596,-612.104 " />
  </g>
  <g
     class="edge"
     id="edge36"
     transform="translate(4,976)">
    <title
       id="title570">top(0, 1)-&gt;A(0, 1)</title>
    <path
       style="fill:none;stroke:#000000"
       inkscape:connector-curvature="0"
       id="path572"
       d="m 195.855,-791.697 c -0.331,7.714 -0.728,16.985 -1.097,25.585" />
    <polygon
       style="fill:#000000;stroke:#000000"
       id="polygon574"
       points="191.261,-766.245 198.254,-765.945 198.254,-765.945 194.329,-756.104 " />
  </g>
  <g
     class="node"
     id="node33"
     transform="translate(4,976)">
    <title
       id="title577">single_corner(0, 0)</title>
    <ellipse
       style="fill:none;stroke:#000000"
       id="ellipse579"
       ry="18"
       rx="77.986198"
       cy="-954"
       cx="340.59601" />
    <text
       style="font-size:14px;font-family:Times, serif;text-anchor:middle"
       id="text581"
       font-size="14.00"
       y="-950.29999"
       x="340.59601">single_corner(0, 0)</text>
  </g>
  <g
     class="edge"
     id="edge37"
     transform="translate(4,976)">
    <title
       id="title584">single_corner(0, 0)-&gt;A(0, 0)</title>
    <path
       style="fill:none;stroke:#000000"
       inkscape:connector-curvature="0"
       id="path586"
       d="m 323.893,-936.055 c -8.434,8.557 -18.822,19.096 -28.112,28.52" />
    <polygon
       style="fill:#000000;stroke:#000000"
       id="polygon588"
       points="293.152,-909.854 298.137,-904.94 298.137,-904.94 288.625,-900.275 " />
  </g>
</svg>
