<?xml version="1.0" encoding="UTF-8" standalone="no"?>
<!-- Generated by graphviz version 2.38.0 (20140413.2041)
 -->

<!-- Title: %3 Pages: 1 -->

<svg
   xmlns:dc="http://purl.org/dc/elements/1.1/"
   xmlns:cc="http://creativecommons.org/ns#"
   xmlns:rdf="http://www.w3.org/1999/02/22-rdf-syntax-ns#"
   xmlns:svg="http://www.w3.org/2000/svg"
   xmlns="http://www.w3.org/2000/svg"
   xmlns:sodipodi="http://sodipodi.sourceforge.net/DTD/sodipodi-0.dtd"
   xmlns:inkscape="http://www.inkscape.org/namespaces/inkscape"
   width="438pt"
   height="980pt"
   viewBox="0.00 0.00 437.84 980.00"
   id="svg8993"
   version="1.1"
   inkscape:version="0.91 r13725"
   sodipodi:docname="reduced.svg">
  <metadata
     id="metadata9522">
    <rdf:RDF>
      <cc:Work
         rdf:about="">
        <dc:format>image/svg+xml</dc:format>
        <dc:type
           rdf:resource="http://purl.org/dc/dcmitype/StillImage" />
      </cc:Work>
    </rdf:RDF>
  </metadata>
  <defs
     id="defs9520" />
  <sodipodi:namedview
     pagecolor="#ffffff"
     bordercolor="#666666"
     borderopacity="1"
     objecttolerance="10"
     gridtolerance="10"
     guidetolerance="10"
     inkscape:pageopacity="0"
     inkscape:pageshadow="2"
     inkscape:window-width="806"
     inkscape:window-height="480"
     id="namedview9518"
     showgrid="false"
     inkscape:zoom="0.19265306"
     inkscape:cx="273.75"
     inkscape:cy="612.5"
     inkscape:window-x="0"
     inkscape:window-y="27"
     inkscape:window-maximized="0"
     inkscape:current-layer="svg8993" />
  <g
     class="node"
     id="node1"
     transform="translate(4,976)">
    <title
       id="title9001">center(1, 2)</title>
    <ellipse
       style="fill:none;stroke:#000000"
       id="ellipse9003"
       ry="18"
       rx="51.990799"
       cy="-522"
       cx="276.246" />
    <text
       style="font-size:14px;font-family:Times, serif;text-anchor:middle"
       id="text9005"
       font-size="14.00"
       y="-518.29999"
       x="276.246">center(1, 2)</text>
  </g>
  <g
     class="node"
     id="node2"
     transform="translate(4,976)">
    <title
       id="title9008">A(1, 2)</title>
    <ellipse
       style="fill:none;stroke:#000000"
       id="ellipse9010"
       ry="18"
       rx="36.2938"
       cy="-450"
       cx="276.246" />
    <text
       style="font-size:14px;font-family:Times, serif;text-anchor:middle"
       id="text9012"
       font-size="14.00"
       y="-446.29999"
       x="276.246">A(1, 2)</text>
  </g>
  <g
     class="edge"
     id="edge1"
     transform="translate(4,976)">
    <title
       id="title9015">center(1, 2)-&gt;A(1, 2)</title>
    <path
       style="fill:none;stroke:#000000"
       inkscape:connector-curvature="0"
       id="path9017"
       d="m 276.246,-503.697 c 0,7.714 0,16.985 0,25.585" />
    <polygon
       style="fill:#000000;stroke:#000000"
       id="polygon9019"
       points="272.746,-478.104 279.746,-478.104 279.746,-478.104 276.246,-468.104 " />
  </g>
  <g
     class="node"
     id="node3"
     transform="translate(4,976)">
    <title
       id="title9022">center(1, 3)</title>
    <ellipse
       style="fill:none;stroke:#000000"
       id="ellipse9024"
       ry="18"
       rx="51.990799"
       cy="-378"
       cx="337.246" />
    <text
       style="font-size:14px;font-family:Times, serif;text-anchor:middle"
       id="text9026"
       font-size="14.00"
       y="-374.29999"
       x="337.246">center(1, 3)</text>
  </g>
  <g
     class="edge"
     id="edge2"
     transform="translate(4,976)">
    <title
       id="title9029">A(1, 2)-&gt;center(1, 3)</title>
    <path
       style="fill:none;stroke:#000000"
       inkscape:connector-curvature="0"
       id="path9031"
       d="m 290.088,-433.116 c 7.655,8.785 17.33,19.887 25.922,29.746" />
    <polygon
       style="fill:#000000;stroke:#000000"
       id="polygon9033"
       points="313.4,-401.037 318.677,-405.636 318.677,-405.636 322.609,-395.797 " />
  </g>
  <g
     class="node"
     id="node4"
     transform="translate(4,976)">
    <title
       id="title9036">center(2, 2)</title>
    <ellipse
       style="fill:none;stroke:#000000"
       id="ellipse9038"
       ry="18"
       rx="51.990799"
       cy="-378"
       cx="215.246" />
    <text
       style="font-size:14px;font-family:Times, serif;text-anchor:middle"
       id="text9040"
       font-size="14.00"
       y="-374.29999"
       x="215.246">center(2, 2)</text>
  </g>
  <g
     class="edge"
     id="edge3"
     transform="translate(4,976)">
    <title
       id="title9043">A(1, 2)-&gt;center(2, 2)</title>
    <path
       style="fill:none;stroke:#000000"
       inkscape:connector-curvature="0"
       id="path9045"
       d="m 262.404,-433.116 c -7.655,8.785 -17.33,19.887 -25.921,29.746" />
    <polygon
       style="fill:#000000;stroke:#000000"
       id="polygon9047"
       points="233.815,-405.636 239.092,-401.037 239.092,-401.037 229.884,-395.797 " />
  </g>
  <g
     class="node"
     id="node25"
     transform="translate(4,976)">
    <title
       id="title9050">A(1, 3)</title>
    <ellipse
       style="fill:none;stroke:#000000"
       id="ellipse9052"
       ry="18"
       rx="36.2938"
       cy="-306"
       cx="321.246" />
    <text
       style="font-size:14px;font-family:Times, serif;text-anchor:middle"
       id="text9054"
       font-size="14.00"
       y="-302.29999"
       x="321.246">A(1, 3)</text>
  </g>
  <g
     class="edge"
     id="edge23"
     transform="translate(4,976)">
    <title
       id="title9057">center(1, 3)-&gt;A(1, 3)</title>
    <path
       style="fill:none;stroke:#000000"
       inkscape:connector-curvature="0"
       id="path9059"
       d="m 333.291,-359.697 c -1.763,7.714 -3.882,16.985 -5.848,25.585" />
    <polygon
       style="fill:#000000;stroke:#000000"
       id="polygon9061"
       points="323.972,-334.633 330.796,-333.073 330.796,-333.073 325.156,-324.104 " />
  </g>
  <g
     class="node"
     id="node21"
     transform="translate(4,976)">
    <title
       id="title9064">A(2, 2)</title>
    <ellipse
       style="fill:none;stroke:#000000"
       id="ellipse9066"
       ry="18"
       rx="36.2938"
       cy="-306"
       cx="215.246" />
    <text
       style="font-size:14px;font-family:Times, serif;text-anchor:middle"
       id="text9068"
       font-size="14.00"
       y="-302.29999"
       x="215.246">A(2, 2)</text>
  </g>
  <g
     class="edge"
     id="edge24"
     transform="translate(4,976)">
    <title
       id="title9071">center(2, 2)-&gt;A(2, 2)</title>
    <path
       style="fill:none;stroke:#000000"
       inkscape:connector-curvature="0"
       id="path9073"
       d="m 215.246,-359.697 c 0,7.714 0,16.985 0,25.585" />
    <polygon
       style="fill:#000000;stroke:#000000"
       id="polygon9075"
       points="211.746,-334.104 218.746,-334.104 218.746,-334.104 215.246,-324.104 " />
  </g>
  <g
     class="node"
     id="node5"
     transform="translate(4,976)">
    <title
       id="title9078">A(1, 0)</title>
    <ellipse
       style="fill:none;stroke:#000000"
       id="ellipse9080"
       ry="18"
       rx="36.2938"
       cy="-738"
       cx="164.246" />
    <text
       style="font-size:14px;font-family:Times, serif;text-anchor:middle"
       id="text9082"
       font-size="14.00"
       y="-734.29999"
       x="164.246">A(1, 0)</text>
  </g>
  <g
     class="node"
     id="node6"
     transform="translate(4,976)">
    <title
       id="title9085">left(2, 0)</title>
    <ellipse
       style="fill:none;stroke:#000000"
       id="ellipse9087"
       ry="18"
       rx="42.4939"
       cy="-666"
       cx="103.246" />
    <text
       style="font-size:14px;font-family:Times, serif;text-anchor:middle"
       id="text9089"
       font-size="14.00"
       y="-662.29999"
       x="103.246">left(2, 0)</text>
  </g>
  <g
     class="edge"
     id="edge4"
     transform="translate(4,976)">
    <title
       id="title9092">A(1, 0)-&gt;left(2, 0)</title>
    <path
       style="fill:none;stroke:#000000"
       inkscape:connector-curvature="0"
       id="path9094"
       d="m 150.404,-721.116 c -7.766,8.912 -17.611,20.21 -26.294,30.174" />
    <polygon
       style="fill:#000000;stroke:#000000"
       id="polygon9096"
       points="121.388,-693.146 126.665,-688.547 126.665,-688.547 117.457,-683.307 " />
  </g>
  <g
     class="node"
     id="node7"
     transform="translate(4,976)">
    <title
       id="title9099">center(1, 1)</title>
    <ellipse
       style="fill:none;stroke:#000000"
       id="ellipse9101"
       ry="18"
       rx="51.990799"
       cy="-666"
       cx="215.246" />
    <text
       style="font-size:14px;font-family:Times, serif;text-anchor:middle"
       id="text9103"
       font-size="14.00"
       y="-662.29999"
       x="215.246">center(1, 1)</text>
  </g>
  <g
     class="edge"
     id="edge5"
     transform="translate(4,976)">
    <title
       id="title9106">A(1, 0)-&gt;center(1, 1)</title>
    <path
       style="fill:none;stroke:#000000"
       inkscape:connector-curvature="0"
       id="path9108"
       d="m 176.075,-720.765 c 6.281,8.622 14.134,19.4 21.156,29.038" />
    <polygon
       style="fill:#000000;stroke:#000000"
       id="polygon9110"
       points="194.41,-689.655 200.068,-693.777 200.068,-693.777 203.128,-683.633 " />
  </g>
  <g
     class="node"
     id="node28"
     transform="translate(4,976)">
    <title
       id="title9113">A(2, 0)</title>
    <ellipse
       style="fill:none;stroke:#000000"
       id="ellipse9115"
       ry="18"
       rx="36.2938"
       cy="-594"
       cx="103.246" />
    <text
       style="font-size:14px;font-family:Times, serif;text-anchor:middle"
       id="text9117"
       font-size="14.00"
       y="-590.29999"
       x="103.246">A(2, 0)</text>
  </g>
  <g
     class="edge"
     id="edge37"
     transform="translate(4,976)">
    <title
       id="title9120">left(2, 0)-&gt;A(2, 0)</title>
    <path
       style="fill:none;stroke:#000000"
       inkscape:connector-curvature="0"
       id="path9122"
       d="m 103.246,-647.697 c 0,7.714 0,16.985 0,25.585" />
    <polygon
       style="fill:#000000;stroke:#000000"
       id="polygon9124"
       points="99.7464,-622.104 106.746,-622.104 106.746,-622.104 103.246,-612.104 " />
  </g>
  <g
     class="node"
     id="node16"
     transform="translate(4,976)">
    <title
       id="title9127">A(1, 1)</title>
    <ellipse
       style="fill:none;stroke:#000000"
       id="ellipse9129"
       ry="18"
       rx="36.2938"
       cy="-594"
       cx="215.246" />
    <text
       style="font-size:14px;font-family:Times, serif;text-anchor:middle"
       id="text9131"
       font-size="14.00"
       y="-590.29999"
       x="215.246">A(1, 1)</text>
  </g>
  <g
     class="edge"
     id="edge38"
     transform="translate(4,976)">
    <title
       id="title9134">center(1, 1)-&gt;A(1, 1)</title>
    <path
       style="fill:none;stroke:#000000"
       inkscape:connector-curvature="0"
       id="path9136"
       d="m 215.246,-647.697 c 0,7.714 0,16.985 0,25.585" />
    <polygon
       style="fill:#000000;stroke:#000000"
       id="polygon9138"
       points="211.746,-622.104 218.746,-622.104 218.746,-622.104 215.246,-612.104 " />
  </g>
  <g
     class="node"
     id="node8"
     transform="translate(4,976)">
    <title
       id="title9141">center(2, 1)</title>
    <ellipse
       style="fill:none;stroke:#000000"
       id="ellipse9143"
       ry="18"
       rx="51.990799"
       cy="-522"
       cx="154.246" />
    <text
       style="font-size:14px;font-family:Times, serif;text-anchor:middle"
       id="text9145"
       font-size="14.00"
       y="-518.29999"
       x="154.246">center(2, 1)</text>
  </g>
  <g
     class="node"
     id="node9"
     transform="translate(4,976)">
    <title
       id="title9148">A(2, 1)</title>
    <ellipse
       style="fill:none;stroke:#000000"
       id="ellipse9150"
       ry="18"
       rx="36.2938"
       cy="-450"
       cx="154.246" />
    <text
       style="font-size:14px;font-family:Times, serif;text-anchor:middle"
       id="text9152"
       font-size="14.00"
       y="-446.29999"
       x="154.246">A(2, 1)</text>
  </g>
  <g
     class="edge"
     id="edge6"
     transform="translate(4,976)">
    <title
       id="title9155">center(2, 1)-&gt;A(2, 1)</title>
    <path
       style="fill:none;stroke:#000000"
       inkscape:connector-curvature="0"
       id="path9157"
       d="m 154.246,-503.697 c 0,7.714 0,16.985 0,25.585" />
    <polygon
       style="fill:#000000;stroke:#000000"
       id="polygon9159"
       points="150.746,-478.104 157.746,-478.104 157.746,-478.104 154.246,-468.104 " />
  </g>
  <g
     class="edge"
     id="edge7"
     transform="translate(4,976)">
    <title
       id="title9162">A(2, 1)-&gt;center(2, 2)</title>
    <path
       style="fill:none;stroke:#000000"
       inkscape:connector-curvature="0"
       id="path9164"
       d="m 168.088,-433.116 c 7.655,8.785 17.33,19.887 25.922,29.746" />
    <polygon
       style="fill:#000000;stroke:#000000"
       id="polygon9166"
       points="191.4,-401.037 196.677,-405.636 196.677,-405.636 200.609,-395.797 " />
  </g>
  <g
     class="node"
     id="node10"
     transform="translate(4,976)">
    <title
       id="title9169">center(3, 1)</title>
    <ellipse
       style="fill:none;stroke:#000000"
       id="ellipse9171"
       ry="18"
       rx="51.990799"
       cy="-378"
       cx="93.2463" />
    <text
       style="font-size:14px;font-family:Times, serif;text-anchor:middle"
       id="text9173"
       font-size="14.00"
       y="-374.29999"
       x="93.2463">center(3, 1)</text>
  </g>
  <g
     class="edge"
     id="edge8"
     transform="translate(4,976)">
    <title
       id="title9176">A(2, 1)-&gt;center(3, 1)</title>
    <path
       style="fill:none;stroke:#000000"
       inkscape:connector-curvature="0"
       id="path9178"
       d="m 140.404,-433.116 c -7.655,8.785 -17.33,19.887 -25.921,29.746" />
    <polygon
       style="fill:#000000;stroke:#000000"
       id="polygon9180"
       points="111.815,-405.636 117.092,-401.037 117.092,-401.037 107.884,-395.797 " />
  </g>
  <g
     class="node"
     id="node29"
     transform="translate(4,976)">
    <title
       id="title9183">A(3, 1)</title>
    <ellipse
       style="fill:none;stroke:#000000"
       id="ellipse9185"
       ry="18"
       rx="36.2938"
       cy="-306"
       cx="109.246" />
    <text
       style="font-size:14px;font-family:Times, serif;text-anchor:middle"
       id="text9187"
       font-size="14.00"
       y="-302.29999"
       x="109.246">A(3, 1)</text>
  </g>
  <g
     class="edge"
     id="edge30"
     transform="translate(4,976)">
    <title
       id="title9190">center(3, 1)-&gt;A(3, 1)</title>
    <path
       style="fill:none;stroke:#000000"
       inkscape:connector-curvature="0"
       id="path9192"
       d="m 97.2013,-359.697 c 1.7632,7.714 3.8817,16.985 5.8477,25.585" />
    <polygon
       style="fill:#000000;stroke:#000000"
       id="polygon9194"
       points="99.6964,-333.073 106.52,-334.633 106.52,-334.633 105.337,-324.104 " />
  </g>
  <g
     class="node"
     id="node11"
     transform="translate(4,976)">
    <title
       id="title9197">A(0, 2)</title>
    <ellipse
       style="fill:none;stroke:#000000"
       id="ellipse9199"
       ry="18"
       rx="36.2938"
       cy="-594"
       cx="327.246" />
    <text
       style="font-size:14px;font-family:Times, serif;text-anchor:middle"
       id="text9201"
       font-size="14.00"
       y="-590.29999"
       x="327.246">A(0, 2)</text>
  </g>
  <g
     class="edge"
     id="edge9"
     transform="translate(4,976)">
    <title
       id="title9204">A(0, 2)-&gt;center(1, 2)</title>
    <path
       style="fill:none;stroke:#000000"
       inkscape:connector-curvature="0"
       id="path9206"
       d="m 315.418,-576.765 c -6.282,8.622 -14.135,19.4 -21.157,29.038" />
    <polygon
       style="fill:#000000;stroke:#000000"
       id="polygon9208"
       points="291.425,-549.777 297.082,-545.655 297.082,-545.655 288.365,-539.633 " />
  </g>
  <g
     class="node"
     id="node12"
     transform="translate(4,976)">
    <title
       id="title9211">top(0, 3)</title>
    <ellipse
       style="fill:none;stroke:#000000"
       id="ellipse9213"
       ry="18"
       rx="41.692799"
       cy="-522"
       cx="388.246" />
    <text
       style="font-size:14px;font-family:Times, serif;text-anchor:middle"
       id="text9215"
       font-size="14.00"
       y="-518.29999"
       x="388.246">top(0, 3)</text>
  </g>
  <g
     class="edge"
     id="edge10"
     transform="translate(4,976)">
    <title
       id="title9218">A(0, 2)-&gt;top(0, 3)</title>
    <path
       style="fill:none;stroke:#000000"
       inkscape:connector-curvature="0"
       id="path9220"
       d="m 341.088,-577.116 c 7.766,8.912 17.611,20.21 26.295,30.174" />
    <polygon
       style="fill:#000000;stroke:#000000"
       id="polygon9222"
       points="364.827,-544.547 370.105,-549.146 370.105,-549.146 374.036,-539.307 " />
  </g>
  <g
     class="node"
     id="node13"
     transform="translate(4,976)">
    <title
       id="title9225">A(0, 3)</title>
    <ellipse
       style="fill:none;stroke:#000000"
       id="ellipse9227"
       ry="18"
       rx="36.2938"
       cy="-450"
       cx="377.246" />
    <text
       style="font-size:14px;font-family:Times, serif;text-anchor:middle"
       id="text9229"
       font-size="14.00"
       y="-446.29999"
       x="377.246">A(0, 3)</text>
  </g>
  <g
     class="edge"
     id="edge11"
     transform="translate(4,976)">
    <title
       id="title9232">top(0, 3)-&gt;A(0, 3)</title>
    <path
       style="fill:none;stroke:#000000"
       inkscape:connector-curvature="0"
       id="path9234"
       d="m 385.527,-503.697 c -1.212,7.714 -2.669,16.985 -4.02,25.585" />
    <polygon
       style="fill:#000000;stroke:#000000"
       id="polygon9236"
       points="378.029,-478.526 384.944,-477.44 384.944,-477.44 379.934,-468.104 " />
  </g>
  <g
     class="edge"
     id="edge22"
     transform="translate(4,976)">
    <title
       id="title9239">A(0, 3)-&gt;center(1, 3)</title>
    <path
       style="fill:none;stroke:#000000"
       inkscape:connector-curvature="0"
       id="path9241"
       d="m 367.767,-432.411 c -4.713,8.248 -10.516,18.402 -15.791,27.634" />
    <polygon
       style="fill:#000000;stroke:#000000"
       id="polygon9243"
       points="348.858,-406.375 354.936,-402.902 354.936,-402.902 346.936,-395.956 " />
  </g>
  <g
     class="node"
     id="node14"
     transform="translate(4,976)">
    <title
       id="title9246">left(3, 0)</title>
    <ellipse
       style="fill:none;stroke:#000000"
       id="ellipse9248"
       ry="18"
       rx="42.4939"
       cy="-522"
       cx="42.2463" />
    <text
       style="font-size:14px;font-family:Times, serif;text-anchor:middle"
       id="text9250"
       font-size="14.00"
       y="-518.29999"
       x="42.2463">left(3, 0)</text>
  </g>
  <g
     class="node"
     id="node15"
     transform="translate(4,976)">
    <title
       id="title9253">A(3, 0)</title>
    <ellipse
       style="fill:none;stroke:#000000"
       id="ellipse9255"
       ry="18"
       rx="36.2938"
       cy="-450"
       cx="53.2463" />
    <text
       style="font-size:14px;font-family:Times, serif;text-anchor:middle"
       id="text9257"
       font-size="14.00"
       y="-446.29999"
       x="53.2463">A(3, 0)</text>
  </g>
  <g
     class="edge"
     id="edge12"
     transform="translate(4,976)">
    <title
       id="title9260">left(3, 0)-&gt;A(3, 0)</title>
    <path
       style="fill:none;stroke:#000000"
       inkscape:connector-curvature="0"
       id="path9262"
       d="m 44.9654,-503.697 c 1.2121,7.714 2.6689,16.985 4.0203,25.585" />
    <polygon
       style="fill:#000000;stroke:#000000"
       id="polygon9264"
       points="45.5484,-477.44 52.4635,-478.526 52.4635,-478.526 50.5584,-468.104 " />
  </g>
  <g
     class="edge"
     id="edge13"
     transform="translate(4,976)">
    <title
       id="title9267">A(3, 0)-&gt;center(3, 1)</title>
    <path
       style="fill:none;stroke:#000000"
       inkscape:connector-curvature="0"
       id="path9269"
       d="m 62.7257,-432.411 c 4.7129,8.248 10.5155,18.402 15.7911,27.634" />
    <polygon
       style="fill:#000000;stroke:#000000"
       id="polygon9271"
       points="75.5567,-402.902 81.6344,-406.375 81.6344,-406.375 83.557,-395.956 " />
  </g>
  <g
     class="edge"
     id="edge14"
     transform="translate(4,976)">
    <title
       id="title9274">A(1, 1)-&gt;center(1, 2)</title>
    <path
       style="fill:none;stroke:#000000"
       inkscape:connector-curvature="0"
       id="path9276"
       d="m 229.088,-577.116 c 7.655,8.785 17.33,19.887 25.922,29.746" />
    <polygon
       style="fill:#000000;stroke:#000000"
       id="polygon9278"
       points="252.4,-545.037 257.677,-549.636 257.677,-549.636 261.609,-539.797 " />
  </g>
  <g
     class="edge"
     id="edge15"
     transform="translate(4,976)">
    <title
       id="title9281">A(1, 1)-&gt;center(2, 1)</title>
    <path
       style="fill:none;stroke:#000000"
       inkscape:connector-curvature="0"
       id="path9283"
       d="m 201.404,-577.116 c -7.655,8.785 -17.33,19.887 -25.921,29.746" />
    <polygon
       style="fill:#000000;stroke:#000000"
       id="polygon9285"
       points="172.815,-549.636 178.092,-545.037 178.092,-545.037 168.884,-539.797 " />
  </g>
  <g
     class="node"
     id="node17"
     transform="translate(4,976)">
    <title
       id="title9288">left(0, 0)</title>
    <ellipse
       style="fill:none;stroke:#000000"
       id="ellipse9290"
       ry="18"
       rx="42.4939"
       cy="-954"
       cx="146.246" />
    <text
       style="font-size:14px;font-family:Times, serif;text-anchor:middle"
       id="text9292"
       font-size="14.00"
       y="-950.29999"
       x="146.246">left(0, 0)</text>
  </g>
  <g
     class="node"
     id="node18"
     transform="translate(4,976)">
    <title
       id="title9295">A(0, 0)</title>
    <ellipse
       style="fill:none;stroke:#000000"
       id="ellipse9297"
       ry="18"
       rx="36.2938"
       cy="-882"
       cx="215.246" />
    <text
       style="font-size:14px;font-family:Times, serif;text-anchor:middle"
       id="text9299"
       font-size="14.00"
       y="-878.29999"
       x="215.246">A(0, 0)</text>
  </g>
  <g
     class="edge"
     id="edge16"
     transform="translate(4,976)">
    <title
       id="title9302">left(0, 0)-&gt;A(0, 0)</title>
    <path
       style="fill:none;stroke:#000000"
       inkscape:connector-curvature="0"
       id="path9304"
       d="m 161.903,-937.116 c 8.999,9.129 20.465,20.761 30.458,30.899" />
    <polygon
       style="fill:#000000;stroke:#000000"
       id="polygon9306"
       points="190.138,-903.486 195.124,-908.4 195.124,-908.4 199.651,-898.821 " />
  </g>
  <g
     class="node"
     id="node19"
     transform="translate(4,976)">
    <title
       id="title9309">left(1, 0)</title>
    <ellipse
       style="fill:none;stroke:#000000"
       id="ellipse9311"
       ry="18"
       rx="42.4939"
       cy="-810"
       cx="164.246" />
    <text
       style="font-size:14px;font-family:Times, serif;text-anchor:middle"
       id="text9313"
       font-size="14.00"
       y="-806.29999"
       x="164.246">left(1, 0)</text>
  </g>
  <g
     class="edge"
     id="edge17"
     transform="translate(4,976)">
    <title
       id="title9316">A(0, 0)-&gt;left(1, 0)</title>
    <path
       style="fill:none;stroke:#000000"
       inkscape:connector-curvature="0"
       id="path9318"
       d="m 203.418,-864.765 c -6.282,8.622 -14.135,19.4 -21.157,29.038" />
    <polygon
       style="fill:#000000;stroke:#000000"
       id="polygon9320"
       points="179.425,-837.777 185.082,-833.655 185.082,-833.655 176.365,-827.633 " />
  </g>
  <g
     class="node"
     id="node20"
     transform="translate(4,976)">
    <title
       id="title9323">top(0, 1)</title>
    <ellipse
       style="fill:none;stroke:#000000"
       id="ellipse9325"
       ry="18"
       rx="41.692799"
       cy="-810"
       cx="266.246" />
    <text
       style="font-size:14px;font-family:Times, serif;text-anchor:middle"
       id="text9327"
       font-size="14.00"
       y="-806.29999"
       x="266.246">top(0, 1)</text>
  </g>
  <g
     class="edge"
     id="edge18"
     transform="translate(4,976)">
    <title
       id="title9330">A(0, 0)-&gt;top(0, 1)</title>
    <path
       style="fill:none;stroke:#000000"
       inkscape:connector-curvature="0"
       id="path9332"
       d="m 227.075,-864.765 c 6.281,8.622 14.134,19.4 21.156,29.038" />
    <polygon
       style="fill:#000000;stroke:#000000"
       id="polygon9334"
       points="245.41,-833.655 251.068,-837.777 251.068,-837.777 254.128,-827.633 " />
  </g>
  <g
     class="edge"
     id="edge33"
     transform="translate(4,976)">
    <title
       id="title9337">left(1, 0)-&gt;A(1, 0)</title>
    <path
       style="fill:none;stroke:#000000"
       inkscape:connector-curvature="0"
       id="path9339"
       d="m 164.246,-791.697 c 0,7.714 0,16.985 0,25.585" />
    <polygon
       style="fill:#000000;stroke:#000000"
       id="polygon9341"
       points="160.746,-766.104 167.746,-766.104 167.746,-766.104 164.246,-756.104 " />
  </g>
  <g
     class="node"
     id="node26"
     transform="translate(4,976)">
    <title
       id="title9344">A(0, 1)</title>
    <ellipse
       style="fill:none;stroke:#000000"
       id="ellipse9346"
       ry="18"
       rx="36.2938"
       cy="-738"
       cx="266.246" />
    <text
       style="font-size:14px;font-family:Times, serif;text-anchor:middle"
       id="text9348"
       font-size="14.00"
       y="-734.29999"
       x="266.246">A(0, 1)</text>
  </g>
  <g
     class="edge"
     id="edge39"
     transform="translate(4,976)">
    <title
       id="title9351">top(0, 1)-&gt;A(0, 1)</title>
    <path
       style="fill:none;stroke:#000000"
       inkscape:connector-curvature="0"
       id="path9353"
       d="m 266.246,-791.697 c 0,7.714 0,16.985 0,25.585" />
    <polygon
       style="fill:#000000;stroke:#000000"
       id="polygon9355"
       points="262.746,-766.104 269.746,-766.104 269.746,-766.104 266.246,-756.104 " />
  </g>
  <g
     class="node"
     id="node22"
     transform="translate(4,976)">
    <title
       id="title9358">center(3, 2)</title>
    <ellipse
       style="fill:none;stroke:#000000"
       id="ellipse9360"
       ry="18"
       rx="51.990799"
       cy="-234"
       cx="154.246" />
    <text
       style="font-size:14px;font-family:Times, serif;text-anchor:middle"
       id="text9362"
       font-size="14.00"
       y="-230.3"
       x="154.246">center(3, 2)</text>
  </g>
  <g
     class="edge"
     id="edge19"
     transform="translate(4,976)">
    <title
       id="title9365">A(2, 2)-&gt;center(3, 2)</title>
    <path
       style="fill:none;stroke:#000000"
       inkscape:connector-curvature="0"
       id="path9367"
       d="m 201.404,-289.116 c -7.655,8.785 -17.33,19.887 -25.921,29.746" />
    <polygon
       style="fill:#000000;stroke:#000000"
       id="polygon9369"
       points="172.815,-261.636 178.092,-257.037 178.092,-257.037 168.884,-251.797 " />
  </g>
  <g
     class="node"
     id="node23"
     transform="translate(4,976)">
    <title
       id="title9372">center(2, 3)</title>
    <ellipse
       style="fill:none;stroke:#000000"
       id="ellipse9374"
       ry="18"
       rx="51.990799"
       cy="-234"
       cx="276.246" />
    <text
       style="font-size:14px;font-family:Times, serif;text-anchor:middle"
       id="text9376"
       font-size="14.00"
       y="-230.3"
       x="276.246">center(2, 3)</text>
  </g>
  <g
     class="edge"
     id="edge20"
     transform="translate(4,976)">
    <title
       id="title9379">A(2, 2)-&gt;center(2, 3)</title>
    <path
       style="fill:none;stroke:#000000"
       inkscape:connector-curvature="0"
       id="path9381"
       d="m 229.088,-289.116 c 7.655,8.785 17.33,19.887 25.922,29.746" />
    <polygon
       style="fill:#000000;stroke:#000000"
       id="polygon9383"
       points="252.4,-257.037 257.677,-261.636 257.677,-261.636 261.609,-251.797 " />
  </g>
  <g
     class="node"
     id="node24"
     transform="translate(4,976)">
    <title
       id="title9386">A(3, 2)</title>
    <ellipse
       style="fill:none;stroke:#000000"
       id="ellipse9388"
       ry="18"
       rx="36.2938"
       cy="-162"
       cx="169.246" />
    <text
       style="font-size:14px;font-family:Times, serif;text-anchor:middle"
       id="text9390"
       font-size="14.00"
       y="-158.3"
       x="169.246">A(3, 2)</text>
  </g>
  <g
     class="edge"
     id="edge21"
     transform="translate(4,976)">
    <title
       id="title9393">center(3, 2)-&gt;A(3, 2)</title>
    <path
       style="fill:none;stroke:#000000"
       inkscape:connector-curvature="0"
       id="path9395"
       d="m 157.954,-215.697 c 1.653,7.714 3.64,16.985 5.482,25.585" />
    <polygon
       style="fill:#000000;stroke:#000000"
       id="polygon9397"
       points="160.063,-189.149 166.908,-190.616 166.908,-190.616 165.581,-180.104 " />
  </g>
  <g
     class="node"
     id="node30"
     transform="translate(4,976)">
    <title
       id="title9400">A(2, 3)</title>
    <ellipse
       style="fill:none;stroke:#000000"
       id="ellipse9402"
       ry="18"
       rx="36.2938"
       cy="-162"
       cx="268.246" />
    <text
       style="font-size:14px;font-family:Times, serif;text-anchor:middle"
       id="text9404"
       font-size="14.00"
       y="-158.3"
       x="268.246">A(2, 3)</text>
  </g>
  <g
     class="edge"
     id="edge32"
     transform="translate(4,976)">
    <title
       id="title9407">center(2, 3)-&gt;A(2, 3)</title>
    <path
       style="fill:none;stroke:#000000"
       inkscape:connector-curvature="0"
       id="path9409"
       d="m 274.269,-215.697 c -0.882,7.714 -1.941,16.985 -2.924,25.585" />
    <polygon
       style="fill:#000000;stroke:#000000"
       id="polygon9411"
       points="267.859,-190.437 274.814,-189.642 274.814,-189.642 270.201,-180.104 " />
  </g>
  <g
     class="node"
     id="node31"
     transform="translate(4,976)">
    <title
       id="title9414">center(3, 3)</title>
    <ellipse
       style="fill:none;stroke:#000000"
       id="ellipse9416"
       ry="18"
       rx="51.990799"
       cy="-90"
       cx="218.246" />
    <text
       style="font-size:14px;font-family:Times, serif;text-anchor:middle"
       id="text9418"
       font-size="14.00"
       y="-86.300003"
       x="218.246">center(3, 3)</text>
  </g>
  <g
     class="edge"
     id="edge34"
     transform="translate(4,976)">
    <title
       id="title9421">A(3, 2)-&gt;center(3, 3)</title>
    <path
       style="fill:none;stroke:#000000"
       inkscape:connector-curvature="0"
       id="path9423"
       d="m 180.611,-144.765 c 5.974,8.535 13.428,19.183 20.122,28.746" />
    <polygon
       style="fill:#000000;stroke:#000000"
       id="polygon9425"
       points="198.001,-113.819 203.736,-117.833 203.736,-117.833 206.603,-107.633 " />
  </g>
  <g
     class="edge"
     id="edge31"
     transform="translate(4,976)">
    <title
       id="title9428">A(1, 3)-&gt;center(2, 3)</title>
    <path
       style="fill:none;stroke:#000000"
       inkscape:connector-curvature="0"
       id="path9430"
       d="m 310.582,-288.411 c -5.357,8.334 -11.966,18.614 -17.95,27.923" />
    <polygon
       style="fill:#000000;stroke:#000000"
       id="polygon9432"
       points="289.61,-262.261 295.498,-258.475 295.498,-258.475 287.147,-251.956 " />
  </g>
  <g
     class="edge"
     id="edge26"
     transform="translate(4,976)">
    <title
       id="title9435">A(0, 1)-&gt;center(1, 1)</title>
    <path
       style="fill:none;stroke:#000000"
       inkscape:connector-curvature="0"
       id="path9437"
       d="m 254.418,-720.765 c -6.282,8.622 -14.135,19.4 -21.157,29.038" />
    <polygon
       style="fill:#000000;stroke:#000000"
       id="polygon9439"
       points="230.425,-693.777 236.082,-689.655 236.082,-689.655 227.365,-683.633 " />
  </g>
  <g
     class="node"
     id="node27"
     transform="translate(4,976)">
    <title
       id="title9442">top(0, 2)</title>
    <ellipse
       style="fill:none;stroke:#000000"
       id="ellipse9444"
       ry="18"
       rx="41.692799"
       cy="-666"
       cx="327.246" />
    <text
       style="font-size:14px;font-family:Times, serif;text-anchor:middle"
       id="text9446"
       font-size="14.00"
       y="-662.29999"
       x="327.246">top(0, 2)</text>
  </g>
  <g
     class="edge"
     id="edge25"
     transform="translate(4,976)">
    <title
       id="title9449">A(0, 1)-&gt;top(0, 2)</title>
    <path
       style="fill:none;stroke:#000000"
       inkscape:connector-curvature="0"
       id="path9451"
       d="m 280.088,-721.116 c 7.766,8.912 17.611,20.21 26.295,30.174" />
    <polygon
       style="fill:#000000;stroke:#000000"
       id="polygon9453"
       points="303.827,-688.547 309.105,-693.146 309.105,-693.146 313.036,-683.307 " />
  </g>
  <g
     class="edge"
     id="edge27"
     transform="translate(4,976)">
    <title
       id="title9456">top(0, 2)-&gt;A(0, 2)</title>
    <path
       style="fill:none;stroke:#000000"
       inkscape:connector-curvature="0"
       id="path9458"
       d="m 327.246,-647.697 c 0,7.714 0,16.985 0,25.585" />
    <polygon
       style="fill:#000000;stroke:#000000"
       id="polygon9460"
       points="323.746,-622.104 330.746,-622.104 330.746,-622.104 327.246,-612.104 " />
  </g>
  <g
     class="edge"
     id="edge28"
     transform="translate(4,976)">
    <title
       id="title9463">A(2, 0)-&gt;center(2, 1)</title>
    <path
       style="fill:none;stroke:#000000"
       inkscape:connector-curvature="0"
       id="path9465"
       d="m 115.075,-576.765 c 6.281,8.622 14.134,19.4 21.156,29.038" />
    <polygon
       style="fill:#000000;stroke:#000000"
       id="polygon9467"
       points="133.41,-545.655 139.068,-549.777 139.068,-549.777 142.128,-539.633 " />
  </g>
  <g
     class="edge"
     id="edge29"
     transform="translate(4,976)">
    <title
       id="title9470">A(2, 0)-&gt;left(3, 0)</title>
    <path
       style="fill:none;stroke:#000000"
       inkscape:connector-curvature="0"
       id="path9472"
       d="m 89.4044,-577.116 c -7.7663,8.912 -17.6112,20.21 -26.2947,30.174" />
    <polygon
       style="fill:#000000;stroke:#000000"
       id="polygon9474"
       points="60.3878,-549.146 65.6651,-544.547 65.6651,-544.547 56.4566,-539.307 " />
  </g>
  <g
     class="edge"
     id="edge40"
     transform="translate(4,976)">
    <title
       id="title9477">A(3, 1)-&gt;center(3, 2)</title>
    <path
       style="fill:none;stroke:#000000"
       inkscape:connector-curvature="0"
       id="path9479"
       d="m 119.911,-288.411 c 5.357,8.334 11.966,18.614 17.95,27.923" />
    <polygon
       style="fill:#000000;stroke:#000000"
       id="polygon9481"
       points="134.994,-258.475 140.882,-262.261 140.882,-262.261 143.346,-251.956 " />
  </g>
  <g
     class="edge"
     id="edge35"
     transform="translate(4,976)">
    <title
       id="title9484">A(2, 3)-&gt;center(3, 3)</title>
    <path
       style="fill:none;stroke:#000000"
       inkscape:connector-curvature="0"
       id="path9486"
       d="m 256.65,-144.765 c -6.097,8.535 -13.702,19.183 -20.533,28.746" />
    <polygon
       style="fill:#000000;stroke:#000000"
       id="polygon9488"
       points="233.092,-117.805 238.788,-113.736 238.788,-113.736 230.127,-107.633 " />
  </g>
  <g
     class="node"
     id="node32"
     transform="translate(4,976)">
    <title
       id="title9491">A(3, 3)</title>
    <ellipse
       style="fill:none;stroke:#000000"
       id="ellipse9493"
       ry="18"
       rx="36.2938"
       cy="-18"
       cx="218.246" />
    <text
       style="font-size:14px;font-family:Times, serif;text-anchor:middle"
       id="text9495"
       font-size="14.00"
       y="-14.3"
       x="218.246">A(3, 3)</text>
  </g>
  <g
     class="edge"
     id="edge36"
     transform="translate(4,976)">
    <title
       id="title9498">center(3, 3)-&gt;A(3, 3)</title>
    <path
       style="fill:none;stroke:#000000"
       inkscape:connector-curvature="0"
       id="path9500"
       d="m 218.246,-71.6966 c 0,7.7139 0,16.9841 0,25.5842" />
    <polygon
       style="fill:#000000;stroke:#000000"
       id="polygon9502"
       points="214.746,-46.1044 221.746,-46.1043 221.746,-46.1043 218.246,-36.1043 " />
  </g>
  <g
     class="node"
     id="node33"
     transform="translate(4,976)">
    <title
       id="title9505">single_corner(0, 0)</title>
    <ellipse
       style="fill:none;stroke:#000000"
       id="ellipse9507"
       ry="18"
       rx="77.986198"
       cy="-954"
       cx="284.246" />
    <text
       style="font-size:14px;font-family:Times, serif;text-anchor:middle"
       id="text9509"
       font-size="14.00"
       y="-950.29999"
       x="284.246">single_corner(0, 0)</text>
  </g>
  <g
     class="edge"
     id="edge41"
     transform="translate(4,976)">
    <title
       id="title9512">single_corner(0, 0)-&gt;A(0, 0)</title>
    <path
       style="fill:none;stroke:#000000"
       inkscape:connector-curvature="0"
       id="path9514"
       d="m 267.543,-936.055 c -8.899,9.028 -19.974,20.263 -29.638,30.068" />
    <polygon
       style="fill:#000000;stroke:#000000"
       id="polygon9516"
       points="235.377,-908.408 240.362,-903.494 240.362,-903.494 230.85,-898.829 " />
  </g>
</svg>
