<?xml version="1.0" encoding="UTF-8" standalone="no"?>
<!-- Created with Inkscape (http://www.inkscape.org/) -->

<svg
   xmlns:dc="http://purl.org/dc/elements/1.1/"
   xmlns:cc="http://creativecommons.org/ns#"
   xmlns:rdf="http://www.w3.org/1999/02/22-rdf-syntax-ns#"
   xmlns:svg="http://www.w3.org/2000/svg"
   xmlns="http://www.w3.org/2000/svg"
   xmlns:sodipodi="http://sodipodi.sourceforge.net/DTD/sodipodi-0.dtd"
   xmlns:inkscape="http://www.inkscape.org/namespaces/inkscape"
   version="1.1"
   id="svg2"
   xml:space="preserve"
   width="152.03999"
   height="203.66667"
   viewBox="0 0 152.03999 203.66667"
   sodipodi:docname="umb.svg"
   inkscape:version="0.92.3 (2405546, 2018-03-11)"><metadata
     id="metadata8"><rdf:RDF><cc:Work
         rdf:about=""><dc:format>image/svg+xml</dc:format><dc:type
           rdf:resource="http://purl.org/dc/dcmitype/StillImage" /><dc:title></dc:title></cc:Work></rdf:RDF></metadata><defs
     id="defs6" /><sodipodi:namedview
     pagecolor="#ffffff"
     bordercolor="#666666"
     borderopacity="1"
     objecttolerance="10"
     gridtolerance="10"
     guidetolerance="10"
     inkscape:pageopacity="0"
     inkscape:pageshadow="2"
     inkscape:window-width="851"
     inkscape:window-height="480"
     id="namedview4"
     showgrid="false"
     inkscape:zoom="1.1587561"
     inkscape:cx="76.019997"
     inkscape:cy="101.83334"
     inkscape:window-x="0"
     inkscape:window-y="27"
     inkscape:window-maximized="0"
     inkscape:current-layer="g10" /><g
     id="g10"
     inkscape:groupmode="layer"
     inkscape:label="ink_ext_XXXXXX"
     transform="matrix(1.3333333,0,0,-1.3333333,0,203.66667)"><g
       id="g12"
       transform="scale(0.1)"><path
         d="M 733.516,1527.46 581.797,1353.16 C 630,1334.26 648.984,1300 649.063,1271.91 648.398,1150.66 223.125,769.453 223.828,666.25 c 0.469,-22.383 8.906,-25.547 33.125,-25.977 193.36,-0.664 545.703,473.167 647.813,609.607 40.703,7.03 40.312,1.64 83.203,6.29 l 5.078,0.55 -3.359,-3.95 C 888.594,1119.65 729.141,819.805 729.219,705.273 c 0,-29.218 5.859,-52.656 19.219,-67.421 8.593,-12.149 23.984,-18.672 44.218,-18.672 61.407,0.312 144.922,101.797 145.078,220.156 v 4.062 l 3.204,-2.46 c 23.437,-17.93 34.531,-44.336 34.531,-70.586 C 975.391,697.07 919.688,631.289 849.063,601.523 H 1131.25 V 1527.46 Z M 123.984,687.383 c 0.625,170.039 417.969,500.237 417.11,605.547 -0.078,34.14 -38.516,44.69 -80.313,44.69 -86.718,-0.24 -329.726,-112.23 -330,-276.17 0.157,-59.85 35.235,-92.661 103.75,-109.184 l 4.883,-1.055 -4.336,-2.617 C 217.5,938.477 197.773,933.672 177.969,933.672 121.406,933.789 64.6875,973.32 64.6875,1040.39 c 0.1563,64.65 132.8515,326.68 429.8435,327.11 16.875,-0.04 32.032,-1.37 45.782,-3.55 L 398.008,1527.46 H 0.3125 V 601.523 H 178.789 c -32.539,15.704 -54.726,51.055 -54.805,85.86"
         style="fill:#1565af;fill-opacity:1;fill-rule:nonzero;stroke:none"
         id="path14"
         inkscape:connector-curvature="0" /><path
         d="m 164.805,307.34 c -17.93,-22.578 -48.125,-29.879 -75.7034,-29.879 -28.5547,0 -58.086,8.32 -75.0391,33.199 C 2.46094,327.578 1.79688,343.512 1.79688,363.441 v 139.45 H 62.5391 V 373.078 c 0,-11.277 -0.3125,-24.566 5.664,-34.879 5.9766,-9.961 17.9297,-14.918 29.2188,-14.918 6.9531,0 13.5941,1.989 19.5701,5.309 16.289,9.301 15.938,27.89 15.938,44.488 v 129.813 h 47.812 v -139.45 c 0,-22.582 -1.328,-37.863 -15.937,-56.101"
         style="fill:#1565af;fill-opacity:1;fill-rule:nonzero;stroke:none"
         id="path16"
         inkscape:connector-curvature="0" /><path
         d="M 421.719,281.441 V 440.82 L 371.914,281.441 H 336.055 L 287.227,440.82 V 281.441 h -47.813 v 221.45 h 88.008 l 32.851,-109.879 35.547,109.879 h 86.953 v -221.45 h -61.054"
         style="fill:#1565af;fill-opacity:1;fill-rule:nonzero;stroke:none"
         id="path18"
         inkscape:connector-curvature="0" /><path
         d="m 618.867,446.129 -21.562,-74.367 h 43.164 z M 666.016,281.441 653.398,325.27 H 583.672 L 571.406,281.441 H 521.25 l 69.727,221.45 h 69.062 l 68.75,-221.45 h -62.773"
         style="fill:#1565af;fill-opacity:1;fill-rule:nonzero;stroke:none"
         id="path20"
         inkscape:connector-curvature="0" /><path
         d="m 842.344,277.461 c -34.844,0 -74.375,10.269 -93.633,41.84 l 37.852,29.527 c 3.671,-6.289 6.64,-11.289 12.304,-15.937 10.938,-8.95 25.547,-12.621 39.492,-12.621 12.969,0 34.219,3.992 34.219,20.589 0,17.262 -26.25,20.942 -38.515,23.59 -10.625,1.992 -21.25,4.301 -31.211,7.973 -27.227,9.609 -44.844,34.18 -44.844,63.09 0,47.808 42.851,71.047 86.015,71.047 31.524,0 57.774,-9.297 78.008,-34.528 l -35.508,-28.91 c -11.64,14.301 -23.242,21.25 -41.835,21.25 -11.641,0 -30.235,-4.293 -30.235,-18.902 0,-15.938 25.235,-19.61 36.875,-22.27 10.625,-2.301 21.25,-4.648 31.524,-7.969 29.882,-9.609 48.164,-31.871 48.164,-63.75 0,-50.781 -42.852,-74.019 -88.672,-74.019"
         style="fill:#1565af;fill-opacity:1;fill-rule:nonzero;stroke:none"
         id="path22"
         inkscape:connector-curvature="0" /><path
         d="m 1051.64,277.461 c -34.84,0 -74.374,10.269 -93.632,41.84 l 37.851,29.527 c 3.672,-6.289 6.641,-11.289 12.301,-15.937 10.94,-8.95 25.55,-12.621 39.5,-12.621 12.97,0 34.22,3.992 34.22,20.589 0,17.262 -26.25,20.942 -38.52,23.59 -10.63,1.992 -21.25,4.301 -31.21,7.973 -27.228,9.609 -44.845,34.18 -44.845,63.09 0,47.808 42.855,71.047 86.015,71.047 31.52,0 57.77,-9.297 78.01,-34.528 l -35.51,-28.91 c -11.64,14.301 -23.24,21.25 -41.84,21.25 -11.64,0 -30.23,-4.293 -30.23,-18.902 0,-15.938 25.23,-19.61 36.88,-22.27 10.62,-2.301 21.25,-4.648 31.52,-7.969 29.88,-9.609 48.16,-31.871 48.16,-63.75 0,-50.781 -42.85,-74.019 -88.67,-74.019"
         style="fill:#1565af;fill-opacity:1;fill-rule:nonzero;stroke:none"
         id="path24"
         inkscape:connector-curvature="0" /><path
         d="M 74.8828,82.3398 H 53.0078 V 40 H 73.75 c 15.2734,0 35.43,-0.8594 35.43,20.1602 0,19.8789 -18.4378,22.1796 -34.2972,22.1796 z m 5.7813,76.6012 H 53.0078 v -39.14 h 27.9297 c 14.4141,0 25.9375,2.859 25.9375,20.16 0,15.82 -12.9687,18.98 -26.2109,18.98 z M 127.031,6.87109 C 114.922,3.71094 101.953,3.44141 89.5703,3.44141 H 0 V 195.551 h 95.9375 c 30.5075,0 64.4925,-12.973 64.4925,-48.68 0,-13.242 -6.328,-25.07 -16.407,-33.43 -6.64,-5.472 -13.242,-8.05 -21.328,-10.941 24.766,-8.0508 41.758,-18.9883 41.758,-47.8086 0,-24.4609 -13.828,-42.0312 -37.422,-47.82031"
         style="fill:#1565af;fill-opacity:1;fill-rule:nonzero;stroke:none"
         id="path26"
         inkscape:connector-curvature="0" /><path
         d="m 282.773,160.391 c -29.375,0 -31.093,-40.039 -31.093,-61.0629 0,-21.0078 1.718,-60.7773 31.093,-60.7773 30.235,0 30.821,42.9297 30.821,64.2582 0,20.16 -2.891,57.582 -30.821,57.582 z M 282.773,0 c -14.687,0 -29.101,3.44141 -42.031,10.3516 -33.984,17.8476 -44.375,52.6992 -44.375,88.9765 0,17.8629 2.891,37.1519 10.391,53.5629 13.515,29.41 44.336,45.82 76.015,45.82 14.415,0 28.79,-3.481 41.758,-10.391 35.43,-18.992 44.336,-54.691 44.336,-92.1481 C 368.867,43.4805 338.633,0 282.773,0"
         style="fill:#1565af;fill-opacity:1;fill-rule:nonzero;stroke:none"
         id="path28"
         inkscape:connector-curvature="0" /><path
         d="m 479.063,0 c -30.235,0 -64.532,8.91016 -81.211,36.25 l 32.812,25.6602 c 3.164,-5.4688 5.781,-9.8008 10.664,-13.8321 9.492,-7.7695 22.188,-10.9297 34.258,-10.9297 11.25,0 29.687,3.4297 29.687,17.8516 0,14.9609 -22.773,18.1211 -33.437,20.4297 -9.219,1.7187 -18.398,3.75 -27.07,6.9101 -23.594,8.3594 -38.868,29.6912 -38.868,54.7302 0,41.481 37.149,61.641 74.61,61.641 27.344,0 50.078,-8.09 67.656,-29.961 l -30.82,-25.039 c -10.078,12.379 -20.156,18.398 -36.289,18.398 -10.078,0 -26.211,-3.711 -26.211,-16.41 0,-13.828 21.914,-16.988 31.992,-19.289 9.219,-2 18.437,-4.031 27.344,-6.922 25.937,-8.359 41.758,-27.6599 41.758,-55.2692 C 555.938,20.1602 518.789,0 479.063,0"
         style="fill:#1565af;fill-opacity:1;fill-rule:nonzero;stroke:none"
         id="path30"
         inkscape:connector-curvature="0" /><path
         d="M 685.898,155.191 V 3.44141 H 633.164 V 155.191 h -52.109 v 40.36 h 156.953 v -40.36 h -52.11"
         style="fill:#1565af;fill-opacity:1;fill-rule:nonzero;stroke:none"
         id="path32"
         inkscape:connector-curvature="0" /><path
         d="m 849.492,160.391 c -29.375,0 -31.094,-40.039 -31.094,-61.0629 0,-21.0078 1.719,-60.7773 31.094,-60.7773 30.235,0 30.821,42.9297 30.821,64.2582 0,20.16 -2.891,57.582 -30.821,57.582 z M 849.492,0 c -14.687,0 -29.101,3.44141 -42.031,10.3516 -33.984,17.8476 -44.375,52.6992 -44.375,88.9765 0,17.8629 2.891,37.1519 10.391,53.5629 13.515,29.41 44.336,45.82 76.015,45.82 14.414,0 28.789,-3.481 41.758,-10.391 35.43,-18.992 44.336,-54.691 44.336,-92.1481 C 935.586,43.4805 905.352,0 849.492,0"
         style="fill:#1565af;fill-opacity:1;fill-rule:nonzero;stroke:none"
         id="path34"
         inkscape:connector-curvature="0" /><path
         d="M 1090.55,3.44141 1015.66,112.301 V 3.44141 H 974.18 V 195.551 h 48.4 l 67.97,-97.6604 v 97.6604 h 41.17 V 3.44141 h -41.17"
         style="fill:#1565af;fill-opacity:1;fill-rule:nonzero;stroke:none"
         id="path36"
         inkscape:connector-curvature="0" /></g></g></svg>